<?xml version="1.0" encoding="utf-8"?>
<!-- Generator: Adobe Illustrator 21.0.0, SVG Export Plug-In . SVG Version: 6.00 Build 0)  -->
<svg version="1.1" id="Layer_1" xmlns="http://www.w3.org/2000/svg" xmlns:xlink="http://www.w3.org/1999/xlink" x="0px" y="0px"
	 viewBox="0 0 50.5 26" style="enable-background:new 0 0 50.5 26;" xml:space="preserve">
<style type="text/css">
	.st0{fill:#FFFFFF;}
</style>
<g>
	<path class="st0" d="M33,19.6c0,0.1,0,0.2,0,0.3c0,0-0.1,0-0.1,0c-0.3,0.1-0.6,0.1-0.9,0c-0.2,0-0.4-0.1-0.5-0.3
		c-0.1-0.1-0.2-0.2-0.3-0.4c-0.2-0.2-0.3-0.5-0.4-0.8c-0.1-0.2-0.2-0.4-0.3-0.6c0,0,0-0.1-0.1-0.1c-0.1,0-0.1,0-0.2,0
		c0,0-0.1,0-0.1,0c0,0.1,0,0.1,0,0.2c0,0.6,0,1.2,0,1.8c0,0.1,0,0.1,0,0.2c0,0,0,0-0.1,0c-0.3,0-0.6,0-0.9,0c0,0,0,0,0,0
		c0,0,0,0,0-0.1c0,0,0-0.1,0-0.1c0-1.6,0-3.2,0-4.8c0-0.1,0-0.1,0-0.2c0,0,0.1,0,0.1,0c0.5,0,1-0.1,1.6,0c0.3,0,0.6,0.1,0.8,0.2
		c0.2,0.1,0.4,0.2,0.5,0.4c0.1,0.2,0.2,0.4,0.2,0.6c0,0.3,0,0.5,0,0.8c-0.1,0.4-0.3,0.7-0.7,0.9c-0.1,0-0.1,0.1-0.2,0.1c0,0,0,0,0,0
		c0.2,0.4,0.4,0.8,0.6,1.1c0.1,0.2,0.2,0.3,0.4,0.5c0.1,0.1,0.1,0.1,0.2,0.1C32.6,19.5,32.7,19.5,33,19.6
		C32.9,19.6,32.9,19.6,33,19.6z M30,15.2c0,0.1,0,0.1,0,0.1c0,0.6,0,1.2,0,1.8c0,0,0,0.1,0,0.1c0,0,0,0,0,0c0.3,0,0.5,0,0.7-0.1
		c0.1-0.1,0.2-0.2,0.3-0.3c0-0.1,0-0.1,0.1-0.2c0-0.2,0.1-0.4,0-0.6c0-0.1,0-0.2-0.1-0.3c-0.1-0.2-0.2-0.4-0.4-0.4
		C30.4,15.2,30.2,15.2,30,15.2z"/>
	<path class="st0" d="M39.5,20c-0.3,0-0.6,0-0.9-0.1c-0.6-0.2-1-0.6-1.3-1.1c-0.1-0.3-0.2-0.6-0.2-0.9c0-0.3,0-0.6,0-0.9
		c0-0.4,0.1-0.7,0.2-1.1c0.2-0.6,0.7-1,1.3-1.1c0.4-0.1,0.8-0.1,1.3-0.1c0.2,0,0.3,0,0.5,0.1c0.7,0.2,1.1,0.6,1.4,1.2
		c0.1,0.3,0.2,0.6,0.2,0.9c0,0.3,0,0.7,0,1c-0.1,0.5-0.2,0.9-0.5,1.3c-0.3,0.4-0.6,0.6-1.1,0.8C40.2,20,39.9,20,39.5,20z M38.2,17.1
		c0,0.3,0,0.7,0.1,1c0,0.2,0.1,0.5,0.2,0.7c0.2,0.3,0.4,0.5,0.8,0.6c0.2,0,0.4,0,0.6,0c0.2,0,0.5-0.1,0.7-0.2
		c0.1-0.1,0.2-0.2,0.2-0.3c0.1-0.2,0.1-0.3,0.1-0.5c0-0.2,0-0.5,0.1-0.7c0-0.4,0-0.7-0.1-1.1c0-0.3-0.1-0.5-0.3-0.7
		c-0.2-0.2-0.4-0.4-0.7-0.5c-0.2,0-0.5,0-0.7,0c-0.2,0-0.4,0.1-0.6,0.2c-0.2,0.1-0.3,0.2-0.3,0.3c0,0.1-0.1,0.2-0.1,0.3
		C38.2,16.4,38.2,16.7,38.2,17.1z"/>
	<path class="st0" d="M26.7,18.2c-0.6,0-1.2,0-1.8,0c0,0.1-0.1,0.2-0.1,0.2c-0.2,0.5-0.3,0.9-0.5,1.4c0,0,0,0.1,0,0.1
		c-0.1,0-0.5,0-0.6,0c0-0.1,0-0.1,0-0.1c0.1-0.2,0.2-0.4,0.2-0.6c0.4-1,0.8-2.1,1.2-3.1c0.1-0.4,0.3-0.8,0.4-1.2c0,0,0,0,0,0
		c0-0.1,0.1-0.1,0.1-0.1c0.2,0,0.4-0.1,0.7-0.1c0.1,0,0.1,0,0.2,0c0.1,0,0.1,0.1,0.1,0.1c0.2,0.5,0.4,1,0.5,1.6
		c0.4,1,0.7,2.1,1.1,3.1c0,0.1,0.1,0.3,0.1,0.4c0,0,0,0,0,0.1c0,0,0,0-0.1,0c-0.3,0-0.6,0-1,0c0,0,0,0,0,0c0,0,0-0.1,0-0.1
		c-0.2-0.5-0.3-1-0.5-1.5C26.7,18.3,26.7,18.2,26.7,18.2z M25.8,15.5c-0.1,0-0.1,0.1-0.1,0.1c-0.1,0.4-0.2,0.7-0.4,1.1
		c-0.1,0.3-0.2,0.6-0.3,0.8c0,0,0,0.1,0,0.1c0,0,0,0,0.1,0c0.5,0,0.9,0,1.4,0c0,0,0,0,0,0c0,0,0,0,0,0c0,0,0,0,0-0.1
		C26.3,16.9,26.1,16.2,25.8,15.5z"/>
	<path class="st0" d="M20,19.6c0,0,0-0.1,0-0.1c0.1-0.2,0.1-0.4,0.2-0.7c0,0,0.1,0,0.1,0c0.4,0.2,0.7,0.3,1.2,0.4c0.2,0,0.5,0,0.7,0
		c0.1,0,0.2-0.1,0.3-0.3c0.1-0.2,0.1-0.4,0.1-0.6c0-0.1-0.1-0.2-0.2-0.3c-0.1-0.1-0.2-0.2-0.4-0.2c-0.2-0.1-0.4-0.2-0.7-0.3
		c-0.2-0.1-0.4-0.2-0.5-0.3c-0.2-0.2-0.4-0.3-0.5-0.6c-0.2-0.6-0.1-1.1,0.3-1.6c0.3-0.3,0.6-0.4,1-0.5c0.2,0,0.5,0,0.7,0
		c0.3,0,0.6,0,0.9,0.1c0,0,0,0,0.1,0c0,0.1-0.1,0.6-0.1,0.8c0,0,0,0-0.1,0c-0.3-0.1-0.6-0.2-0.9-0.2c-0.2,0-0.4,0-0.5,0
		c0,0-0.1,0-0.1,0c-0.1,0-0.2,0.1-0.3,0.3c0,0.1,0,0.2,0,0.4c0,0.1,0.1,0.2,0.1,0.3c0.1,0.1,0.1,0.1,0.2,0.2
		c0.2,0.1,0.3,0.2,0.5,0.2c0.3,0.1,0.5,0.2,0.8,0.4c0.3,0.2,0.6,0.5,0.7,0.9c0.1,0.6,0,1.1-0.4,1.5c-0.3,0.3-0.8,0.5-1.2,0.5
		c-0.4,0-0.8,0-1.1-0.1C20.4,19.8,20.1,19.7,20,19.6z"/>
	<path class="st0" d="M34.5,19.4c0.1,0,0.1,0,0.2,0c0.5,0,1,0,1.5,0c0.1,0,0.2,0,0.3,0c0,0,0,0,0,0c0,0.1,0,0.4,0,0.5
		c0,0-0.1,0-0.1,0c-0.1,0-0.2,0-0.3,0c-0.8,0-1.6,0-2.4,0c-0.1,0-0.1,0-0.2,0c0,0,0-0.1,0-0.1c0,0,0-0.1,0-0.1c0-1.6,0-3.2,0-4.8
		c0-0.1,0-0.1,0-0.2c0,0,0.1,0,0.1,0c0.9,0,1.8,0,2.6,0c0,0,0.1,0,0.1,0c0,0.1,0,0.4-0.1,0.5c-0.6,0-1.2,0-1.8,0c0,0,0,0.1,0,0.1
		c0,0.5,0,1,0,1.5c0,0,0,0.1,0,0.1c0.1,0,0.2,0,0.3,0c0.1,0,0.2,0,0.3,0c0.1,0,0.2,0,0.3,0c0.1,0,0.2,0,0.3,0c0.1,0,0.2,0,0.3,0
		c0,0.2,0,0.3,0,0.5c-0.1,0-0.2,0-0.3,0c-0.1,0-0.2,0-0.3,0c-0.1,0-0.2,0-0.3,0c-0.1,0-0.2,0-0.3,0c-0.1,0-0.2,0-0.3,0
		c0,0.1,0,0.1,0,0.2c0,0.3,0,0.6,0,0.9c0,0.2,0,0.4,0,0.6C34.5,19.2,34.5,19.3,34.5,19.4z"/>
	<path class="st0" d="M17.3,14.8c-0.1,0.2-0.1,0.5-0.2,0.7c0,0-0.1,0-0.1,0c-0.3-0.1-0.6-0.1-0.9-0.2c-0.2,0-0.4,0-0.7,0
		c-0.2,0-0.4,0.1-0.6,0.2c-0.1,0.1-0.2,0.2-0.3,0.3c-0.1,0.1-0.1,0.3-0.1,0.4c-0.1,0.6-0.1,1.2,0,1.8c0,0.2,0.1,0.4,0.2,0.7
		c0,0.1,0.1,0.2,0.1,0.2c0.2,0.3,0.5,0.4,0.8,0.4c0.2,0,0.4,0,0.6,0c0.3,0,0.5-0.1,0.8-0.1c0.1,0,0.2-0.1,0.3-0.1c0,0,0.1,0,0.1,0
		c0,0.1,0,0.3,0,0.4c0,0-0.1,0-0.1,0.1c-0.3,0.1-0.7,0.2-1.1,0.3c-0.2,0-0.5,0-0.8,0c-0.3,0-0.6-0.1-0.9-0.2
		c-0.3-0.2-0.6-0.4-0.8-0.8c-0.1-0.2-0.2-0.4-0.2-0.5c-0.1-0.3-0.1-0.7-0.1-1c0-0.3,0-0.6,0.1-0.8c0.1-0.4,0.2-0.7,0.5-1
		c0.3-0.3,0.6-0.5,1-0.7c0.3-0.1,0.7-0.2,1.1-0.2C16.4,14.7,16.8,14.7,17.3,14.8C17.3,14.8,17.3,14.8,17.3,14.8z"/>
	<path class="st0" d="M18.2,14.7C18.3,14.7,18.3,14.7,18.2,14.7c0.4,0,0.7,0,1,0c0,0,0,0.1,0,0.1c0,0,0,0.1,0,0.1c0,1.6,0,3.2,0,4.8
		c0,0.1,0,0.1,0,0.2c0,0-0.1,0-0.1,0c-0.3,0-0.6,0-0.9,0c0,0,0,0-0.1,0c0,0,0,0,0-0.1C18.2,18.2,18.2,16.4,18.2,14.7z"/>
	<path class="st0" d="M31.8,22.1c0.1,0,0.3-0.1,0.4-0.1c0,0,0,0.1,0,0.1c0,0.2,0,0.4-0.1,0.6c-0.1,0.1-0.1,0.2-0.2,0.3
		c0,0,0,0.1-0.1,0.1c0.1,0.1,0.2,0.2,0.4,0.3c0.1,0.1,0.3,0.1,0.4,0.2c0,0.1,0,0.1,0,0.2c0,0-0.1,0-0.1,0c-0.1,0-0.2,0-0.3,0.1
		c-0.2,0-0.3,0-0.5-0.1c-0.1,0-0.2-0.1-0.2-0.2c0,0-0.1-0.1-0.1-0.1c-0.1,0-0.1,0.1-0.2,0.1c-0.3,0.2-0.5,0.3-0.9,0.2
		c-0.3,0-0.6-0.2-0.7-0.5c-0.1-0.3-0.1-0.7,0.2-1c0.1-0.1,0.2-0.1,0.2-0.2c0,0,0.1,0,0.1-0.1c0-0.1,0-0.1-0.1-0.1
		c-0.1-0.2-0.1-0.3-0.1-0.5c0-0.4,0.2-0.6,0.6-0.7c0.2,0,0.3,0,0.5,0c0.3,0.1,0.5,0.4,0.4,0.7c0,0.1-0.1,0.2-0.2,0.3
		c-0.1,0.1-0.2,0.2-0.3,0.3c0,0-0.1,0-0.1,0.1c0,0,0,0,0,0.1c0.2,0.3,0.4,0.5,0.6,0.7c0,0,0,0,0,0c0,0,0.1,0,0.1-0.1
		C31.8,22.7,31.8,22.5,31.8,22.1C31.8,22.2,31.8,22.2,31.8,22.1C31.8,22.2,31.8,22.2,31.8,22.1z M30.5,22.6
		C30.5,22.6,30.5,22.6,30.5,22.6C30.5,22.6,30.5,22.6,30.5,22.6c-0.2,0.2-0.3,0.5-0.2,0.7c0.1,0.2,0.2,0.3,0.4,0.3
		c0.2,0,0.3,0,0.5-0.1c0,0,0,0,0.1,0c0,0,0,0,0,0C31,23.2,30.8,22.9,30.5,22.6C30.5,22.6,30.5,22.6,30.5,22.6z M30.8,22
		c0.1,0,0.2-0.1,0.2-0.2c0.2-0.2,0.2-0.3,0.1-0.5c0-0.1-0.2-0.2-0.3-0.2c-0.1,0-0.2,0.1-0.2,0.2C30.6,21.6,30.6,21.8,30.8,22z"/>
	<path class="st0" d="M13.4,23.9c0-0.1,0-2.9,0-3c0,0,0.1,0,0.1,0c0.4,0,0.7,0,1.1,0c0.2,0,0.4,0,0.5,0.1c0.4,0.1,0.7,0.4,0.8,0.8
		c0.1,0.2,0.1,0.4,0.1,0.6c0,0.2,0,0.4-0.1,0.5c-0.1,0.4-0.3,0.7-0.7,0.9c-0.2,0.1-0.4,0.1-0.6,0.2c-0.3,0-0.5,0-0.8,0
		c-0.1,0-0.2,0-0.3,0C13.5,23.9,13.5,23.9,13.4,23.9z M14,21.2c0,0.1,0,0.1,0,0.2c0,0.5,0,1,0,1.4c0,0.2,0,0.5,0,0.7
		c0,0,0,0.1,0,0.1c0,0,0,0,0,0c0.3,0,0.5,0,0.8,0c0.2-0.1,0.4-0.2,0.4-0.4c0-0.1,0.1-0.2,0.1-0.3c0.1-0.3,0.1-0.6,0-0.9
		c0-0.2-0.1-0.3-0.2-0.5c-0.1-0.2-0.3-0.3-0.4-0.4C14.6,21.1,14.3,21.1,14,21.2C14.1,21.1,14,21.2,14,21.2z"/>
	<path class="st0" d="M42.8,21.8c0,0.2,0,0.4,0,0.5c0,0.2,0,0.4,0,0.5c0,0.2,0,0.3,0,0.5c0,0.2,0,0.3,0,0.5c-0.1,0-0.2,0-0.3,0
		c0,0,0-0.1,0-0.1c0,0,0-0.1,0-0.1c0-0.9,0-1.8,0-2.7c0-0.1,0-0.1,0-0.2c0.1-0.1,0.1,0,0.2,0c0.1,0,0.1,0,0.1,0.1
		c0.6,0.6,1.2,1.3,1.8,1.9c0,0,0.1,0.1,0.1,0.1c0,0,0,0,0-0.1c0-0.2,0-0.3,0-0.5c0-0.5,0-0.9,0-1.4c0,0,0-0.1,0-0.1
		c0.1,0,0.2,0,0.3,0c0,0,0,0.1,0,0.1c0,0,0,0.1,0,0.1c0,0.9,0,1.8,0,2.7c0,0.1,0,0.1,0,0.2c-0.1,0-0.2,0-0.2,0c0,0-0.1,0-0.1-0.1
		c-0.2-0.2-0.3-0.3-0.5-0.5c-0.5-0.5-1-1-1.4-1.5C42.9,21.9,42.9,21.8,42.8,21.8z"/>
	<path class="st0" d="M28.3,20.9c0,0.2,0,2.2,0,3c0,0,0,0.1,0,0.1c-0.1,0-0.2,0-0.2,0c0,0-0.1,0-0.1-0.1c-0.1-0.1-0.2-0.3-0.4-0.4
		c-0.5-0.5-1-1.1-1.6-1.6c0,0-0.1,0-0.1-0.1c0,0,0,0.1,0,0.1c0,0.1,0,0.3,0,0.4c0,0.4,0,0.8,0,1.2c0,0.1,0,0.2,0,0.3
		c0,0,0,0.1,0,0.1c-0.1,0-0.2,0-0.3,0c0,0,0-0.1,0-0.1c0-0.7,0-2.8,0-3c0.1,0,0.1,0,0.2,0c0,0,0.1,0,0.1,0.1
		c0.2,0.2,0.3,0.3,0.5,0.5c0.5,0.5,1,1,1.4,1.5c0,0,0.1,0.1,0.1,0.1c0.1,0,0-0.1,0-0.1c0-0.3,0-0.5,0-0.8c0-0.4,0-0.8,0-1.1
		c0,0,0-0.1,0-0.1C28.1,20.9,28.2,20.9,28.3,20.9z"/>
	<path class="st0" d="M25,22.5c0,0.1,0,1.1,0,1.2c0,0-0.1,0.1-0.2,0.1c-0.4,0.1-0.8,0.2-1.2,0.2c-0.2,0-0.3,0-0.5-0.1
		c-0.3-0.1-0.4-0.3-0.5-0.6c-0.1-0.2-0.1-0.4-0.2-0.6c0-0.2,0-0.4,0-0.5c0-0.6,0.4-1.1,1-1.3c0.2,0,0.3-0.1,0.5-0.1
		c0.2,0,0.5,0,0.7,0c0.1,0,0.1,0,0.2,0c0,0.1,0,0.3-0.1,0.4c0,0,0,0-0.1,0c-0.2-0.1-0.4-0.1-0.6-0.1c-0.1,0-0.3,0-0.4,0
		c-0.1,0-0.1,0-0.2,0c-0.1,0-0.2,0.1-0.3,0.3c0,0.1,0,0.1-0.1,0.2c-0.1,0.5-0.1,0.9,0,1.4c0,0.1,0.1,0.3,0.1,0.4
		c0.1,0.2,0.3,0.3,0.5,0.3c0.2,0,0.4,0,0.6-0.1c0,0,0,0,0.1,0c0-0.1,0-0.7,0-0.8c0,0-0.1,0-0.1,0c-0.1,0-0.3,0-0.4,0
		c0,0-0.1,0-0.1,0c0-0.1,0-0.1,0-0.2c0,0,0.1,0,0.1,0c0.1,0,0.2,0,0.3,0c0.2,0,0.4,0,0.6,0C24.9,22.5,24.9,22.5,25,22.5z"/>
	<path class="st0" d="M18.7,23.8c0-0.1,0.1-0.3,0.1-0.4c0.1,0,0.1,0,0.1,0c0.2,0.1,0.4,0.2,0.6,0.2c0.1,0,0.3,0,0.4,0
		c0.1,0,0.2-0.1,0.2-0.2c0-0.1,0-0.2,0-0.3c0-0.1,0-0.1-0.1-0.2c-0.1-0.1-0.1-0.1-0.2-0.1c-0.1-0.1-0.2-0.1-0.4-0.2
		c-0.1-0.1-0.3-0.1-0.4-0.2c-0.3-0.2-0.4-0.4-0.4-0.7c0-0.2,0.1-0.3,0.2-0.4c0.2-0.2,0.4-0.4,0.7-0.4c0.3,0,0.6,0,0.8,0
		c0,0,0,0,0.1,0c0,0.1,0,0.1,0,0.2c0,0.1,0,0.1,0,0.2c0,0-0.1,0-0.1,0c-0.2-0.1-0.5-0.1-0.7-0.1c0,0-0.1,0-0.1,0
		c-0.1,0-0.2,0.1-0.2,0.2c0,0.1,0,0.2,0,0.2c0,0.1,0,0.1,0.1,0.2c0.1,0.1,0.2,0.1,0.2,0.2c0.1,0.1,0.2,0.1,0.3,0.1
		c0.1,0,0.2,0.1,0.3,0.1c0.5,0.3,0.6,1,0.2,1.4C20.3,23.9,20,24,19.7,24c-0.3,0-0.6,0-0.9-0.2C18.8,23.8,18.8,23.8,18.7,23.8z"/>
	<path class="st0" d="M35.5,20.9c0,0.1,0,0.3-0.1,0.4c0,0-0.1,0-0.1,0c-0.1,0-0.3-0.1-0.4-0.1c-0.1,0-0.3,0-0.4,0
		c-0.2,0-0.2,0.1-0.3,0.3c0,0.2,0,0.4,0.2,0.5c0.1,0,0.2,0.1,0.3,0.1c0.1,0.1,0.2,0.1,0.4,0.2c0.1,0,0.2,0.1,0.2,0.1
		c0.2,0.1,0.3,0.3,0.3,0.6c0,0.4-0.1,0.6-0.4,0.9C35,23.9,34.8,24,34.5,24c-0.3,0-0.5,0-0.8-0.1c0,0-0.1,0-0.1-0.1c0,0,0,0,0,0
		c0-0.1,0.1-0.3,0.1-0.4c0.1,0,0.1,0,0.1,0c0.2,0.1,0.4,0.2,0.6,0.2c0.2,0,0.3,0,0.5,0c0.1,0,0.1-0.1,0.2-0.2c0-0.1,0-0.2,0-0.3
		c0-0.1,0-0.1-0.1-0.2c-0.1-0.1-0.1-0.1-0.2-0.1c-0.1-0.1-0.2-0.1-0.3-0.1c-0.1-0.1-0.3-0.1-0.4-0.2c-0.1,0-0.1-0.1-0.2-0.2
		c-0.2-0.2-0.3-0.7,0-1c0.2-0.2,0.4-0.3,0.7-0.4C34.8,20.8,35.1,20.8,35.5,20.9C35.4,20.9,35.4,20.9,35.5,20.9z"/>
	<path class="st0" d="M17.3,23.6c0.4,0,0.8,0,1.2,0c0,0.1,0,0.2,0,0.3c0,0-0.1,0-0.1,0c-0.2,0-0.3,0-0.5,0c-0.3,0-0.6,0-0.9,0
		c-0.1,0-0.1,0-0.2,0c0,0,0,0,0-0.1c0,0,0-0.1,0-0.1c0-0.9,0-1.8,0-2.7c0-0.1,0-0.1,0-0.2c0.1,0,0.9,0,1.6,0c0,0,0.1,0,0.1,0
		c0,0.1,0,0.2,0,0.3c0,0-0.1,0-0.1,0c-0.3,0-0.5,0-0.8,0c0,0-0.1,0-0.1,0c0,0.1,0,0.2,0,0.3c0,0.1,0,0.2,0,0.3c0,0.1,0,0.2,0,0.3
		c0,0,0.1,0,0.1,0c0.2,0,0.5,0,0.7,0c0,0,0.1,0,0.1,0c0,0.1,0,0.2,0,0.3c-0.3,0-0.6,0-1,0c0,0,0,0,0,0
		C17.3,22.9,17.3,23.2,17.3,23.6C17.3,23.6,17.3,23.6,17.3,23.6z"/>
	<path class="st0" d="M49.3,21.2c0,0.3,0,0.7,0,1c0.1,0,0.2,0,0.3,0c0.1,0,0.2,0,0.3,0c0.1,0,0.2,0,0.3,0c0,0.1,0,0.2,0,0.3
		c-0.3,0-0.6,0-1,0c0,0,0,0.1,0,0.1c0,0.3,0,0.6,0,0.9c0,0,0,0.1,0,0.1c0,0,0.1,0,0.1,0c0.2,0,0.5,0,0.7,0c0.1,0,0.2,0,0.3,0
		c0,0,0,0,0.1,0c0,0.1,0,0.2,0,0.3c0,0-0.1,0-0.1,0c-0.2,0-0.3,0-0.5,0c-0.3,0-0.6,0-1,0c-0.1,0-0.1,0-0.2,0c0,0,0,0,0-0.1
		c0-1,0-2,0-3c0,0,0,0,0,0c0,0,0,0,0,0c0,0,0,0,0,0c0,0,0.1,0,0.1,0c0.5,0,1,0,1.5,0c0,0,0,0,0,0c0,0.1,0,0.2,0,0.3c0,0-0.1,0-0.1,0
		c-0.3,0-0.5,0-0.8,0C49.4,21.2,49.3,21.2,49.3,21.2z"/>
	<path class="st0" d="M40.2,23.9c0-0.1,0-1.6,0-2.9c0,0,0-0.1,0-0.1c0,0,0.1,0,0.1,0c0.5,0,1,0,1.5,0c0,0,0,0,0.1,0
		c0,0.1,0,0.2,0,0.3c0,0-0.1,0-0.1,0c-0.3,0-0.5,0-0.8,0c-0.1,0-0.1,0-0.2,0c0,0,0,0,0,0.1c0,0.3,0,0.6,0,0.9c0,0,0,0,0,0.1
		c0,0,0.1,0,0.1,0c0.2,0,0.5,0,0.7,0c0,0,0.1,0,0.1,0c0,0.1,0,0.2,0,0.2c-0.2,0-0.3,0-0.5,0c-0.2,0-0.3,0-0.5,0c0,0,0,0.1,0,0.1
		c0,0.3,0,0.6,0,0.9c0,0,0,0,0,0.1c0,0,0.1,0,0.1,0c0.2,0,0.5,0,0.7,0c0.1,0,0.2,0,0.3,0c0,0,0,0,0.1,0c0,0.1,0,0.2,0,0.3
		c0,0-0.1,0-0.1,0c-0.5,0-1,0-1.5,0C40.3,24,40.3,24,40.2,23.9z"/>
	<path class="st0" d="M38.4,23.6c0,0.1,0,0.1,0,0.2c-0.1,0.1-0.2,0.1-0.3,0.1C37.7,24,37.5,24,37.2,24c-0.2,0-0.3,0-0.5-0.1
		c-0.3-0.1-0.5-0.4-0.6-0.7C36.1,23,36,22.8,36,22.5c0-0.2,0-0.3,0-0.5c0.1-0.7,0.6-1.1,1.1-1.2c0.3-0.1,0.5,0,0.8,0
		c0.1,0,0.2,0,0.3,0c0,0,0,0,0.1,0c0,0.1-0.1,0.3-0.1,0.4c0,0-0.1,0-0.1,0c-0.2,0-0.4-0.1-0.6-0.1c-0.1,0-0.2,0-0.3,0
		c-0.1,0-0.1,0-0.2,0c-0.2,0.1-0.3,0.2-0.4,0.4c0,0.1-0.1,0.3-0.1,0.4c0,0.2,0,0.4,0,0.7c0,0.2,0.1,0.4,0.1,0.6
		c0.1,0.2,0.2,0.3,0.5,0.4c0.1,0,0.1,0,0.2,0c0.3,0,0.5,0,0.8-0.1C38.2,23.6,38.3,23.6,38.4,23.6C38.3,23.6,38.3,23.6,38.4,23.6z"/>
	<path class="st0" d="M48.1,23.6c0,0.1,0,0.1,0,0.2c0,0-0.1,0-0.1,0.1C47.7,24,47.3,24,47,24c-0.2,0-0.4-0.1-0.6-0.2
		c-0.2-0.1-0.3-0.3-0.4-0.5c-0.1-0.2-0.1-0.4-0.1-0.6c0-0.2,0-0.4,0-0.6c0.1-0.3,0.2-0.6,0.4-0.8c0.2-0.2,0.5-0.3,0.9-0.4
		c0.3,0,0.6,0,0.9,0c0,0,0.1,0,0.1,0c0,0.1,0,0.3-0.1,0.4c0,0-0.1,0-0.1,0c-0.2,0-0.4-0.1-0.6-0.1c-0.1,0-0.2,0-0.3,0
		c-0.1,0-0.2,0-0.2,0.1c-0.1,0.1-0.2,0.2-0.3,0.3c0,0.1-0.1,0.3-0.1,0.4c0,0.3,0,0.5,0,0.8c0,0.2,0,0.3,0.1,0.5c0,0,0,0.1,0,0.1
		c0.1,0.3,0.3,0.4,0.6,0.4c0.3,0,0.5,0,0.8-0.1C48,23.6,48.1,23.6,48.1,23.6z"/>
	<path class="st0" d="M21.3,20.9c0.1,0,0.4,0,0.6,0c0,0,0,0,0,0.1c0,0,0,0.1,0,0.1c0,0.9,0,1.8,0,2.7c0,0.1,0,0.1,0,0.2
		c-0.1,0-0.4,0-0.6,0c0,0,0-0.1,0-0.1c0,0,0-0.1,0-0.1c0-0.9,0-1.8,0-2.7C21.3,21,21.3,20.9,21.3,20.9z"/>
	<path class="st0" d="M39.5,23.9c-0.1,0-0.4,0-0.6,0c0,0,0-0.1,0-0.1c0,0,0-0.1,0-0.1c0-0.9,0-1.8,0-2.7c0-0.1,0-0.1,0-0.2
		c0,0,0,0,0,0c0.2,0,0.3,0,0.5,0c0,0,0,0.1,0,0.1c0,0,0,0.1,0,0.1c0,0.9,0,1.8,0,2.7C39.5,23.8,39.5,23.9,39.5,23.9z"/>
	<path class="st0" d="M26,13l-5.7-5.7c0,0,0,0,0,0c-0.1-0.1-1.4-1.4-1.8-1.8c0,0,0,0-0.1-0.1c0,0,0,0,0,0L13,0c0,0,0,0-0.1,0
		C8.6,4.3,4.3,8.7,0,13c0,0,0,0,0,0c0,0,0,0,0,0C4.3,17.4,8.6,21.7,13,26c0,0,0,0,0,0c0,0,0-0.1,0-0.1c0-1.1,0-2.3,0-3.4
		c0-0.1,0-0.2-0.1-0.2c0,0,0,0,0,0c-1-1-2-2-3-3c-1.7-1.7-3.4-3.4-5.1-5.1c-0.3-0.3-0.7-0.7-1-1c0,0-0.1-0.1-0.1-0.1
		c0.1-0.1,0.1-0.1,0.2-0.2c0.9-0.9,1.9-1.9,2.8-2.8c0.3-0.3,0.7-0.7,1-1c0,0,0.1-0.1,0.1-0.1c0,0,0.1,0,0.1,0.1
		c0.4,0.4,0.8,0.8,1.3,1.2c0.6,0.6,1.2,1.1,1.7,1.7c0.6,0.5,1.1,1.1,1.7,1.6c0.2,0.2,0.5,0.5,0.7,0.7c0,0,0.1,0.1,0.1,0.1
		c0,0,0,0,0.1-0.1c0.7-0.7,1.4-1.5,2.2-2.2c0.5-0.6,1.1-1.1,1.6-1.7c0.3-0.3,0.7-0.7,1-1c0.1-0.1,0.1-0.1,0.2-0.2c0,0,0,0,0,0
		l3.8,3.8L26,13z M16.6,7.3C16.6,7.3,16.6,7.4,16.6,7.3c-0.4,0.4-0.8,0.8-1.2,1.2C15,9,14.6,9.4,14.2,9.9c-0.2,0.2-0.5,0.5-0.7,0.7
		c0,0-0.1,0.1-0.1,0.1c0,0,0,0-0.1-0.1c-1.2-1.2-2.4-2.4-3.6-3.5c0,0,0,0,0,0c0-0.1,0.1-0.1,0.1-0.1c1.1-1.1,2.1-2.1,3.2-3.2
		c0,0,0.1-0.1,0.1-0.1v0L16.6,7.3C16.6,7.3,16.6,7.3,16.6,7.3z"/>
</g>
</svg>
